# xmcd CD database file
#
# Track frame offsets:
#	151
#	16002
#	32789
#	51200
#	74607
#	86314
#	106611
#	119012
#	132351
#	146568
#	164609
#	180938
#	192587
#	204878
#	217701
#	231258
#	249657
#	265682
#	278441
#	294958
#
# Disc length: 3953 seconds
#
# Revision: 0
# Processed by: cddbd v1.4PL0 Copyright (c) Steve Scherf et al.
# Submitted via: CDex 1.50
#
DISCID=160f6f14
DTITLE=Frank Willson - - Cruisin' New Zealand
DYEAR=1900
DGENRE=Country
TTITLE0=Shores Of Ngunguru
TTITLE1=Friends
TTITLE2=This Is Our N.Z.
TTITLE3=South Island Magic
TTITLE4=Waitaki Spendour
TTITLE5=Say Hello To The South Island
TTITLE6=Chasing Rainbows
TTITLE7=Do You Recall
TTITLE8=I Can't Help It
TTITLE9=In My Own Peculiar Way
TTITLE10=A Falling Star
TTITLE11=Take These Chains
TTITLE12=Send Me The Pillow
TTITLE13=Have You Ever Been Lonely
TTITLE14=It Keeps Right On A-Hurtin'
TTITLE15=Blue Eyes Crying In The Rain
TTITLE16=Home Is Where You're Happy
TTITLE17=No Letter Today
TTITLE18=It Is No Secret
TTITLE19=Dedication
EXTD=
EXTT0=
EXTT1=
EXTT2=
EXTT3=
EXTT4=
EXTT5=
EXTT6=
EXTT7=
EXTT8=
EXTT9=
EXTT10=
EXTT11=
EXTT12=
EXTT13=
EXTT14=
EXTT15=
EXTT16=
EXTT17=
EXTT18=
EXTT19=
PLAYORDER=
